<svg xmlns="http://www.w3.org/2000/svg">
  <!-- Burger nav icon -->
  <symbol id="burger" viewBox="0 0 90 67">
    <path d="M90,8.3H0V0h90V8.3z M90,29.3H0v8.3h90V29.3z M90,58.7H0V67h90V58.7z"/>
  </symbol>
  <!-- LinkedIn icon -->
  <symbol id="linkedin" viewBox="0 0 438.536 438.535">
		<rect x="5.424" y="145.895" width="94.216" height="282.932"/>
		<path d="M408.842,171.739c-19.791-21.604-45.967-32.408-78.512-32.408c-11.991,0-22.891,1.475-32.695,4.427
			c-9.801,2.95-18.079,7.089-24.838,12.419c-6.755,5.33-12.135,10.278-16.129,14.844c-3.798,4.337-7.512,9.389-11.136,15.104
			v-40.232h-93.935l0.288,13.706c0.193,9.139,0.288,37.307,0.288,84.508c0,47.205-0.19,108.777-0.572,184.722h93.931V270.942
			c0-9.705,1.041-17.412,3.139-23.127c4-9.712,10.037-17.843,18.131-24.407c8.093-6.572,18.13-9.855,30.125-9.855
			c16.364,0,28.407,5.662,36.117,16.987c7.707,11.324,11.561,26.98,11.561,46.966V428.82h93.931V266.664
			C438.529,224.976,428.639,193.336,408.842,171.739z"/>
		<path d="M53.103,9.708c-15.796,0-28.595,4.619-38.4,13.848C4.899,32.787,0,44.441,0,58.529c0,13.891,4.758,25.505,14.275,34.829
			c9.514,9.325,22.078,13.99,37.685,13.99h0.571c15.99,0,28.887-4.661,38.688-13.99c9.801-9.324,14.606-20.934,14.417-34.829
			c-0.19-14.087-5.047-25.742-14.561-34.973C81.562,14.323,68.9,9.708,53.103,9.708z"/>
  </symbol>
  <!-- Plus icon -->
  <symbol id="plus" viewBox="0 0 512 512">
    <path d="M489.667,233.667H276.333V20.333C276.333,8.551,266.782-1,255-1s-21.333,9.551-21.333,21.333v213.333H20.333
    C8.551,233.667-1,243.218-1,255s9.551,21.333,21.333,21.333h213.333v213.333c0,11.782,9.551,21.333,21.333,21.333
    s21.333-9.551,21.333-21.333V276.333h213.333c11.782,0,21.333-9.551,21.333-21.333S501.449,233.667,489.667,233.667z"/>
  </symbol>
  <!-- Info icon -->
  <symbol id="info" viewBox="0 0 510 510">
    <path d="M255,0C114.75,0,0,114.75,0,255s114.75,255,255,255s255-114.75,255-255S395.25,0,255,0z M280.5,382.5h-51v-153h51V382.5z M280.5,178.5h-51v-51h51V178.5z"/>
  </symbol>
  <!-- Info outline icon -->
  <symbol id="infooutline" viewBox="0 0 512 512">
    <path d="m277.332031 128c0 11.78125-9.550781 21.332031-21.332031 21.332031s-21.332031-9.550781-21.332031-21.332031 9.550781-21.332031 21.332031-21.332031 21.332031 9.550781 21.332031 21.332031zm0 0"/><path d="m256 405.332031c-8.832031 0-16-7.167969-16-16v-165.332031h-21.332031c-8.832031 0-16-7.167969-16-16s7.167969-16 16-16h37.332031c8.832031 0 16 7.167969 16 16v181.332031c0 8.832031-7.167969 16-16 16zm0 0"/><path d="m256 512c-141.164062 0-256-114.835938-256-256s114.835938-256 256-256 256 114.835938 256 256-114.835938 256-256 256zm0-480c-123.519531 0-224 100.480469-224 224s100.480469 224 224 224 224-100.480469 224-224-100.480469-224-224-224zm0 0"/><path d="m304 405.332031h-96c-8.832031 0-16-7.167969-16-16s7.167969-16 16-16h96c8.832031 0 16 7.167969 16 16s-7.167969 16-16 16zm0 0"/>
  </symbol>
  <!-- Resend icon -->
  <symbol id="resend" viewBox="0 0 85 85">
    <path d="M14,45v3.5C14,64.2,26.8,77,42.5,77S71,64.2,71,48.5S58.2,20,42.5,20h-1l8,8l-5,5l-16-16l16-16l5,4.9L42.4,13h0.1      C62.1,13,78,28.9,78,48.5S62.1,84,42.5,84S7,68.1,7,48.5V45H14z"/>
  </symbol>
  <!-- Checkmark icon -->
  <symbol id="checkmark" viewBox="0 0 78.369 78.369">
    <path d="M78.049,19.015L29.458,67.606c-0.428,0.428-1.121,0.428-1.548,0L0.32,40.015c-0.427-0.426-0.427-1.119,0-1.547l6.704-6.704 c0.428-0.427,1.121-0.427,1.548,0l20.113,20.112l41.113-41.113c0.429-0.427,1.12-0.427,1.548,0l6.703,6.704 C78.477,17.894,78.477,18.586,78.049,19.015z"/>
  </symbol>
  <!-- Cross icon -->
  <symbol id="cross" viewBox="0 0 413.348 413.348">
    <path d="m413.348 24.354-24.354-24.354-182.32 182.32-182.32-182.32-24.354 24.354 182.32 182.32-182.32 182.32 24.354 24.354 182.32-182.32 182.32 182.32 24.354-24.354-182.32-182.32z"/>
  </symbol>
  <!-- Home icon -->
  <symbol id="home" viewBox="0 0 512 512">
	  <path d="M193.4,446V323.9c41.2,0,83.9,0,125.1,0V446h83.9V224.7L256,78.2L109.5,224.7V446H193.4z M433,255.2v221.3H79V255.2
		l-54.9,54.9L2.7,288.8L256,35.5l253.3,253.3l-21.4,21.4L433,255.2z M288,446v-91.6H224V446H288z"/>
  </symbol>
  <!-- Messages icon -->
  <symbol id="messages" viewBox="0 0 512 512">
    <path d="M220.7,300.4H328l67.8,67.7c4.9,4.9,12.9,4.9,17.8,0c2.4-2.4,3.7-5.6,3.7-8.9v-58.8h24.8c30.2-0.1,54.7-24.5,54.7-54.7V75.2
      c0-30.2-24.5-54.7-54.7-54.7H220.4C190.3,20.7,166,45.1,166,75.2v170.4C166,275.9,190.5,300.4,220.7,300.4z M191.2,75.2
      c0-16.3,13.2-29.5,29.5-29.5l0,0h221.7c16.2,0.1,29.3,13.3,29.3,29.5v170.4c0,16.3-13.2,29.5-29.5,29.5l0,0h-37.4
      c-7,0-12.6,5.6-12.6,12.6v41l-50-49.9c-2.4-2.4-5.6-3.7-8.9-3.7H220.7c-16.3,0-29.5-13.2-29.5-29.5l0,0L191.2,75.2z"/>
    <path d="M67.8,432.1h24.8v58.8c0,7,5.6,12.6,12.6,12.6c3.4,0,6.6-1.3,8.9-3.7l67.8-67.7h107.3c30.2,0,54.7-24.5,54.7-54.7v-34.1
      c0-7-5.6-12.6-12.6-12.6c-7,0-12.6,5.6-12.6,12.6v34.1c0,16.3-13.2,29.5-29.5,29.5l0,0H176.7c-3.3,0-6.6,1.3-8.9,3.7l-50,49.9v-41
      c0-7-5.6-12.6-12.6-12.6H67.8c-16.3,0-29.5-13.2-29.5-29.5V207c0-16.3,13.2-29.5,29.5-29.5l0,0h62.7c7,0,12.6-5.6,12.6-12.6
      s-5.6-12.6-12.6-12.6H67.8c-30.2,0-54.7,24.5-54.7,54.7v170.4C13.2,407.6,37.6,432,67.8,432.1z"/>
  </symbol>
  <!-- Profile icon -->
  <symbol id="profile" viewBox="0 0 512 512">
  	<path d="M255.4,8.5c136.9,0,248.1,111.2,248.1,246.9c0,136.9-111.2,248.1-248.1,248.1C119.7,503.5,8.5,392.3,8.5,255.4
		C8.5,119.7,119.7,8.5,255.4,8.5z M255.4,140.5c48.9,0,89.2,40.3,89.2,89.2c0,31.8-17.1,59.9-44,75.8
		c52.6,15.9,94.1,59.9,105.1,114.9c44-40.3,72.1-99,72.1-165c0-122.2-99-222.4-222.4-222.4c-122.2,0-222.4,100.2-222.4,222.4
		c0,66,28.1,124.7,73.3,165c11-55,51.3-99,103.9-114.9c-25.7-15.9-42.8-44-42.8-75.8C167.4,180.8,206.5,140.5,255.4,140.5z
		 M383.7,438.7c-7.3-64.8-61.1-114.9-128.3-114.9c-66,0-119.8,50.1-127.1,114.9c36.7,24.4,80.7,39.1,127.1,39.1
		C303.1,477.8,347.1,463.2,383.7,438.7z M255.4,166.2c-35.4,0-63.6,28.1-63.6,63.6s29.3,63.6,63.6,63.6c35.4,0,64.8-28.1,64.8-63.6
		S290.8,166.2,255.4,166.2z"/>
  </symbol>
  <!-- Trophy icon -->
  <symbol id="trophy" viewBox="0 0 512 512">
    <path d="M415.9,245.4c-8,3.3-22.3,7-35-1.3c5.9-16.9,9.2-36.3,9.2-58.4V79.9l41-15.2c0.6-0.2,1.2-0.5,1.7-0.8
        c5.6-3.1,11.8-3,16.9,0.3c5.7,3.6,8.8,10.2,8.2,17.5c0,0.3,0,0.7,0,1l1,96.3C459,212.4,436.7,236.8,415.9,245.4L415.9,245.4z
        M364.6,185.7c0,38.1-11.8,69.8-34.1,91.6c-19.6,19.2-46.1,29.8-74.6,29.8c-52.9,0-109.8-38-109.8-121.4V55.2h218.5V185.7z
        M328.1,413.8c18.1,15.1,36.1,24.7,46.2,29.4v17H136.4v-17c10.1-4.7,28.2-14.2,46.3-29.4c27.9-23.4,45.6-51.6,52.3-82.8
        c6.8,1,13.8,1.6,20.9,1.6c6.6,0,13.2-0.5,19.9-1.5C282.5,362.3,300.2,390.5,328.1,413.8L328.1,413.8z M94.8,245.4
        c-20.7-8.6-43.1-33-43.1-66.1l1-96.5c0-0.3,0-0.7,0-1c-0.5-7.3,2.6-13.9,8.2-17.5c5.2-3.3,11.3-3.4,16.9-0.3
        c0.6,0.3,1.1,0.6,1.7,0.8l41,15.2v105.8c0,21.1,3.3,40.6,9.5,58.2C117.4,252.5,102.9,248.7,94.8,245.4L94.8,245.4z M483.5,83
        c0.9-16.3-6.7-31.7-20-40.2c-12.8-8.2-28.4-8.8-42.1-1.7l-31.3,11.6V42.5c0-7-5.7-12.7-12.7-12.7h-244c-7,0-12.7,5.7-12.7,12.7
        v10.2L89.3,41.1c-13.6-7.1-29.3-6.5-42.1,1.7C34,51.3,26.4,66.6,27.3,83l-1,96.1c0,38.6,24.2,75.5,58.8,89.8
        c9.1,3.8,18.3,5.6,27.1,5.6c10.2,0,20-2.6,28.7-7.5c6,10.4,13.4,19.8,22,28.2c13.6,13.3,29.8,23.2,47.5,29.5
        c-13.8,68.1-87.7,96.7-91.1,98c-5,1.9-8.3,6.6-8.3,11.9V473c0,7,5.7,12.7,12.7,12.7h263.4c7,0,12.7-5.7,12.7-12.7v-38.2
        c0-5.3-3.3-10.1-8.3-11.9c-3.5-1.3-77.1-29.8-91.1-97.7c27.8-9.6,53.3-28.6,69.9-57.7c8.6,4.7,18.1,7.2,28.2,7.2
        c8.8,0,18-1.9,27.1-5.6c34.6-14.3,58.8-51.3,58.8-90L483.5,83z"/>
  </symbol>
  <!-- stats icon -->
  <symbol id="stats" viewBox="0 0 429.655 429.655">
    <path d="M418.407,40.127c-7.9-8.4-19-13.2-30.6-13.2c-23.1,0-41.8,18.7-41.8,41.8c0,3.7,0.5,7.4,1.5,11l-45.3,32.1
      c-16.2-16.4-42.7-16.6-59.1-0.4c-11.6,11.5-15.5,28.6-9.9,44l-41.8,35.2c-13.2-18.9-39.2-23.6-58.2-10.4
      c-7.2,5-12.6,12.2-15.5,20.4l-34.7-14.1c-3.9-22.8-25.4-38.1-48.2-34.2c-22.8,3.9-38.1,25.4-34.2,48.2
      c3.9,22.8,25.4,38.1,48.2,34.2c15-2.5,27.4-13,32.5-27.3l34.7,14.1c3.9,22.8,25.4,38.1,48.2,34.2c20.1-3.4,34.8-20.8,34.8-41.2
      c0-1.3-0.1-2.7-0.2-4l45.6-38.5c17.1,15.5,43.5,14.3,59-2.8c9.9-10.9,13.3-26.2,9.1-40.2l44.8-31.8c15.8,16.9,42.2,17.7,59.1,2
      C433.307,83.427,434.107,57.027,418.407,40.127z M41.807,215.427c-12,0-21.8-9.8-21.8-21.8s9.8-21.8,21.8-21.8s21.8,9.8,21.8,21.8
      C63.607,205.627,53.807,215.427,41.807,215.427z M157.107,236.427c-12,0-21.8-9.8-21.8-21.8s9.8-21.8,21.8-21.8
      s21.8,9.8,21.8,21.8C178.907,226.627,169.207,236.427,157.107,236.427z M272.507,163.027c-12,0-21.8-9.8-21.8-21.8
      s9.8-21.8,21.8-21.8s21.8,9.8,21.8,21.8S284.507,163.027,272.507,163.027z M387.807,90.527c-12,0-21.8-9.8-21.8-21.8
      s9.8-21.8,21.8-21.8s21.8,9.8,21.8,21.8C409.607,80.827,399.907,90.527,387.807,90.527z"/>
    <path d="M415.807,143.727h-56c-5.5,0-10,4.5-10,10v238c0,5.5,4.5,10,10,10h56c5.5,0,10-4.5,10-10v-238
      C425.807,148.227,421.307,143.727,415.807,143.727z M405.807,382.727h-36v-219h36V382.727z"/>
    <path d="M300.807,215.727h-56c-5.5,0-10,4.5-10,10v166c0,5.5,4.5,10,10,10h56c5.5,0,10-4.5,10-10v-166
      C310.807,220.227,306.307,215.727,300.807,215.727z M290.807,382.727h-36v-147h36V382.727z"/>
    <path d="M184.807,290.727h-56c-5.5,0-10,4.5-10,10v92c0,5.5,4.5,10,10,10h56c5.5,0,10-4.5,10-10v-92
      C194.807,295.227,190.307,290.727,184.807,290.727z M174.807,382.727h-36v-72h36V382.727z"/>
    <path d="M69.807,269.727h-56c-5.5,0-10,4.5-10,10v113c0,5.5,4.5,10,10,10h56c5.5,0,10-4.5,10-10v-113
      C79.807,274.227,75.307,269.727,69.807,269.727z M59.807,382.727h-36v-93h36V382.727z"/>
  </symbol>
  <!-- Logout icon -->
  <symbol id="logout" viewBox="0 0 512 512">
    <polygon points="298.8,437.1 58.4,437.1 58.4,74.9 298.8,74.9 298.8,135.3 331.7,135.3 331.7,42 25.5,42 25.5,470 331.7,470 331.7,376.7 298.8,376.7"/>
    <polygon points="383.3,148.4 359.7,171.5 428.8,239.5 147.9,239.5 147.9,272.5 428.8,272.5 359.7,340.5 383.3,363.6 492.5,256"/>
  </symbol>
  <!-- Beel icon -->
  <symbol id="bell" viewBox="0 0 512 512">
    <path d="M498,386.9c0-42.7-21.3-82.6-56.7-106.3v-76.6c0-100.7-80.1-185.5-178.5-189.1C160.5,11.3,74.6,91.1,70.9,193.4
      c-0.1,2.2-0.1,4.5-0.1,6.7v80.4C35.2,304.3,13.9,344.2,14,386.9v15.9c0,11.7,9.5,21.1,21.1,21.1h129.2
      c11.5,50.6,61.8,82.3,112.4,70.9c35.3-8,62.9-35.6,70.9-70.9h129.2c11.7,0,21.1-9.5,21.1-21.1V386.9z M256,454.5
      c-20.4,0-38.9-12-47.2-30.6h94.5C294.9,442.5,276.4,454.5,256,454.5z M56.5,381.6c1.7-29.8,18.8-56.5,45.1-70.5
      c7.1-3.6,11.5-10.9,11.5-18.8v-92.2c0-79,64.1-142.9,143-142.9c1.7,0,3.4,0,5,0.1c75.9,2.7,137.7,68.5,137.7,146.8v88.5
      c0,7.8,4.3,15,11.2,18.7c26.4,14,43.6,40.7,45.3,70.5L56.5,381.6z"/>
  </symbol>
  <!-- Lightbulb icon -->
  <symbol id="lightbulb" viewBox="0 0 512 512">
    <path d="M390.4,241.7c0-69.9-60.5-127-134.7-127S121,171.8,121,241.7c0,10.1,1.2,20.1,4.2,30.2c3.6,16.2,10.1,26.3,19,40.3
		c1.8,3.4,4.2,6.7,6.5,10.6c3,4.5,5.3,9,8.3,12.9c11.9,18.5,19,29.1,19,50.9v52.6c0,13.4,10.1,24.1,23.7,26.3
		c5.9,28.5,23.7,46.4,54,46.4s48.6-17.9,54-46.4c13.6-2.2,23.7-13.4,23.7-26.3v-52.6c0-21.8,7.1-33,19-50.9
		c2.4-3.9,5.3-8.4,8.3-12.9c2.4-3.9,4.7-7.3,6.5-10.6c8.9-14,15.4-24.1,19-40.3C389.2,261.9,390.4,251.8,390.4,241.7z M310.3,400.1
		h-108v-12.9c0-2.8,0-5-0.6-7.3h108.6c0,2.2-0.6,4.5-0.6,7.3v12.9H310.3z M304.9,444.3h-98.5c-3,0-4.7-2.2-4.7-4.5v-17.3h108v17.3
		C310.3,442.1,307.9,444.3,304.9,444.3z M255.7,490.2c-6.5,0-23.1,0-29.7-23.5H286C279.4,490.2,262.2,490.2,255.7,490.2z
		 M363.1,267.5c-3,12.3-7.7,20.7-16,33.6c-2.4,3.4-4.2,6.7-6.5,10.6c-3,4.5-5.3,9-7.7,12.3c-7.1,11.2-13.6,21.3-17.8,33H197.6
		c-4.2-11.8-10.1-21.8-17.8-33c-2.4-3.9-5.3-7.8-7.7-12.3c-2.4-3.9-4.7-7.8-6.5-10.6c-8.3-13.4-13.1-21.3-16-34.1
		c-2.4-8.4-3.6-16.8-3.6-25.2c0-57.6,49.8-104.6,110.9-104.6s110.9,47,110.9,104.6C366.6,250.1,365.5,258.5,363.1,267.5z"/>
    <path d="M500.1,230.5h-49.2c-6.5,0-11.9,5-11.9,11.2c0,6.2,5.3,11.2,11.9,11.2h49.2c6.5,0,11.9-5,11.9-11.2
      C512,235.6,506.7,230.5,500.1,230.5z"/>
    <path d="M393.3,123.1c3,0,5.9-1.1,8.3-3.4l35-33c4.7-4.5,4.7-11.2,0-15.7c-4.7-4.5-11.9-4.5-16.6,0l-35,33
      c-4.7,4.5-4.7,11.2,0,15.7C387.4,122,390.4,123.1,393.3,123.1z"/>
    <path d="M255.7,68.8c6.5,0,11.9-5,11.9-11.2V11.2C267.6,5,262.2,0,255.7,0c-6.5,0-11.9,5-11.9,11.2v46.4
      C243.8,63.8,249.2,68.8,255.7,68.8z"/>
    <path d="M109.8,119.7c2.4,2.2,5.3,3.4,8.3,3.4c3,0,5.9-1.1,8.3-3.4c4.7-4.5,4.7-11.2,0-15.7l-35-33c-4.7-4.5-11.9-4.5-16.6,0
      c-4.7,4.5-4.7,11.2,0,15.7L109.8,119.7z"/>
    <path d="M61.1,230.5H11.9c-6.5,0-11.9,5-11.9,11.2c0,6.2,5.3,11.2,11.9,11.2h49.2c6.5,0,11.9-5,11.9-11.2
      C73,235.6,67.6,230.5,61.1,230.5z"/>
    <path d="M109.8,363.7l-35,33c-4.7,4.5-4.7,11.2,0,15.7c2.4,2.2,5.3,3.4,8.3,3.4c3,0,5.9-1.1,8.3-3.4l35-33c4.7-4.5,4.7-11.2,0-15.7
      C121.6,359.2,113.9,359.2,109.8,363.7z"/>
    <path d="M401.6,363.7c-4.7-4.5-11.9-4.5-16.6,0c-4.7,4.5-4.7,11.2,0,15.7l35,33c2.4,2.2,5.3,3.4,8.3,3.4s5.9-1.1,8.3-3.4
      c4.7-4.5,4.7-11.2,0-15.7L401.6,363.7z"/>
  </symbol>
  <!-- Arrow icon -->
  <symbol id="arrow" viewBox="0 0 31.494 31.494">
    <path d="M10.273,5.009c0.444-0.444,1.143-0.444,1.587,0c0.429,0.429,0.429,1.143,0,1.571l-8.047,8.047h26.554 c0.619,0,1.127,0.492,1.127,1.111c0,0.619-0.508,1.127-1.127,1.127H3.813l8.047,8.032c0.429,0.444,0.429,1.159,0,1.587	c-0.444,0.444-1.143,0.444-1.587,0l-9.952-9.952c-0.429-0.429-0.429-1.143,0-1.571L10.273,5.009z"/>
  </symbol>
  <!-- Pencil icon -->
  <symbol id="pencil" viewBox="0 0 85 85">
    <path d="M0.7,84.3C1.2,84.7,1.8,85,2.5,85c0.2,0,0.4,0,0.6-0.1l20-5c0,0,0.1,0,0.1,0c0.2,0,0.3-0.1,0.4-0.2c0,0,0.1,0,0.1-0.1	c0.2-0.1,0.3-0.2,0.5-0.4l58.5-58.5c2.9-2.9,2.9-7.7,0-10.6l-7.9-7.9c-2.9-2.9-7.7-2.9-10.6,0L5.7,60.7c-0.1,0.1-0.3,0.3-0.4,0.5	c0,0-0.1,0.1-0.1,0.1c-0.1,0.1-0.1,0.3-0.2,0.4c0,0,0,0.1,0,0.1l-5,20C-0.1,82.7,0.1,83.6,0.7,84.3z M67.8,5.7c1-1,2.6-1,3.5,0	l7.9,7.9c1,1,1,2.6,0,3.5L75,21.5L63.5,10L67.8,5.7z M60,13.5L71.5,25l-49,49L11,62.5L60,13.5z M8.9,67.4l8.8,8.8L5.9,79.1L8.9,67.4	z"/>
  </symbol>
  <!-- Rocket icon -->
  <symbol id="rocket" viewBox="0 0 85 85">
    <path d="M60.7,23.8c-3.9-3.9-10.3-3.9-14.2,0c-3.9,3.9-3.9,10.3,0,14.2c3.9,3.9,10.3,3.9,14.2,0C64.6,34.1,64.6,27.8,60.7,23.8z M57.8,35.2c-2.3,2.3-6.2,2.3-8.5,0c-2.4-2.4-2.4-6.2,0-8.5c2.4-2.4,6.2-2.4,8.5,0C60.2,29,60.2,32.8,57.8,35.2z"/>
    <path d="M83.4,1.1c-0.4-0.4-0.9-0.6-1.5-0.6c-0.5,0-11.3,0.5-24.1,5C47.5,9.1,38.9,14.4,32.3,21c-1.5,1.5-2.9,3.1-4.3,4.7
			c-6.6-3.9-11.8-2.7-15.1-0.9C5.1,28.9,0.4,40,0.4,48c0,0.8,0.5,1.5,1.2,1.9C1.9,49.9,2.2,50,2.4,50c0.5,0,1-0.2,1.4-0.6
			c4-4,9-3.8,10.6-3.6l0.7,0.7c-1.4,3.3-2.5,6.6-3.3,9.8c-0.3,1.2-0.2,2.4,0.2,3.5c-1.9,0.9-3.8,2.2-5.4,3.8
			c-5.2,5.2-6.2,17.8-6.3,18.3c0,0.6,0.2,1.2,0.6,1.6c0.4,0.4,0.9,0.6,1.4,0.6c0.1,0,0.1,0,0.2,0c0.5,0,13.1-1.1,18.3-6.3
			c1.6-1.6,2.9-3.5,3.8-5.4c1.2,0.5,2.4,0.5,3.5,0.2c3.2-0.8,6.5-1.9,9.8-3.3l0.7,0.7c0.2,1.6,0.5,6.6-3.6,10.6
			c-0.6,0.6-0.7,1.4-0.4,2.2c0.3,0.8,1,1.2,1.9,1.2c8,0,19.1-4.7,23.2-12.4c1.8-3.3,3-8.6-0.9-15.1c1.6-1.4,3.2-2.8,4.7-4.3
			C70.2,45.6,75.4,37,79,26.7C83.5,13.9,84,3,84,2.6C84,2,83.8,1.5,83.4,1.1z M4.9,43.7c1.2-6,4.9-12.7,9.8-15.3
			c3.3-1.8,6.9-1.6,10.7,0.5c-3.3,4.3-6.1,8.9-8.4,13.8c0,0-0.4-0.5-1.1-0.6C15.6,41.9,10.3,40.8,4.9,43.7z M18,75
			c-2.8,2.8-9.2,4.2-13.3,4.8c0.6-4.1,2.1-10.6,4.8-13.3c1.5-1.5,3.3-2.7,5.1-3.4l6.8,6.8C20.8,71.6,19.6,73.4,18,75z M27.2,68.8
			c-0.6,0.1-1.3-0.1-1.8-0.6c-2.6-2.6-3.6-3.6-3.9-3.9c-0.6-0.6-2-2-5.2-5.2c-0.5-0.5-0.7-1.2-0.6-1.8c0.6-2.5,1.5-5.1,2.5-7.7
			l16.6,16.6C32.3,67.3,29.7,68.1,27.2,68.8z M56.1,69.8c-2.6,4.9-9.3,8.5-15.3,9.8c1.9-3.6,2.4-8.2,1.6-11c-0.2-0.6-0.6-1-0.6-1
			c4.9-2.4,9.5-5.2,13.8-8.4C57.7,62.9,57.9,66.5,56.1,69.8z M60.7,49.4c-1.8,1.8-3.8,3.6-5.8,5.2c-4.9,3.9-10.3,7.3-16,9.9L20,45.6
			c2.7-5.7,6-11.1,9.9-16c1.6-2,3.4-4,5.2-5.8c6-6,13.6-10.7,22.8-14.1l16.8,16.8C71.4,35.8,66.6,43.5,60.7,49.4z M76.2,22.3l-14-14
			C69.8,5.9,76.5,5,79.8,4.7C79.5,8,78.6,14.7,76.2,22.3z"/>
  </symbol>
  <!-- Compass icon -->
  <symbol id="compass" viewBox="0 0 512 512">
    <path d="M209.1,5.3C-92.2,68.8-54.5,503.9,256,512c310.6-8.2,348.1-443.3,46.9-506.7L256-0.5 M256,489.8
      c-128.6,0-233.3-104.7-233.3-233.3c11.7-309.1,454.9-309,466.6,0C489.3,385.1,384.6,489.8,256,489.8z"/>
    <path d="M256,56.5c-110.3,0-200,89.7-200,200c10.1,264.9,389.9,264.8,399.9,0C456,146.2,366.3,56.5,256,56.5z M256,434.2
      c-98,0-177.7-79.7-177.7-177.7c8.9-235.5,346.6-235.4,355.5,0C433.8,354.5,354,434.2,256,434.2z"/>
    <path d="M360.3,152.2c-3.6-3.6-9-4.3-13.4-1.8l-122.4,70.5c-1.7,1-3.1,2.4-4.1,4.1l-70.5,122.4c-4.3,7.1,1.3,16.9,9.6,16.7
      c1.9,0,3.8-0.5,5.5-1.5l122.4-70.5c1.7-1,3.1-2.4,4.1-4.1l70.5-122.4C364.6,161.2,363.9,155.7,360.3,152.2L360.3,152.2z
      M232.4,248.6l31.4,31.4l-74.1,42.7L232.4,248.6z M279.6,264.3l-31.4-31.4l74.1-42.7L279.6,264.3z"/>
    <path d="M256,120.7c6.1,0,11.1-5,11.1-11.1c-0.5-14.7-21.7-14.7-22.2,0C244.9,115.7,249.9,120.7,256,120.7z"/>
    <path d="M160.8,159.6c3.8-4.8,3.1-11.8-1.7-15.6c-11.8-8.8-25,7.8-13.9,17.4C150,165.1,157,164.4,160.8,159.6z"/>
    <path d="M109.1,245.4c-6.1,0-11.1,5-11.1,11.1c0.5,14.7,21.7,14.7,22.2,0C120.2,250.4,115.3,245.4,109.1,245.4z"/>
    <path d="M256,392.3c-6.1,0-11.1,5-11.1,11.1c0.5,14.7,21.7,14.7,22.2,0C267.1,397.2,262.1,392.3,256,392.3z"/>
    <path d="M352,352.5c-7,6.8-1.8,19.1,7.9,19c9.7,0.2,14.9-12.1,7.9-19C363.4,348.2,356.4,348.2,352,352.5L352,352.5z"/>
    <path d="M402.9,245.4c-6.1,0-11.1,5-11.1,11.1c0.5,14.7,21.7,14.7,22.2,0C414,250.3,409,245.4,402.9,245.4z"/>
  </symbol>
  <!-- Book icon -->
  <symbol id="book" viewBox="0 0 465 465">
    <path d="M240,356.071V132.12c0-4.143-3.357-7.5-7.5-7.5s-7.5,3.357-7.5,7.5v223.951c0,4.143,3.357,7.5,7.5,7.5
      S240,360.214,240,356.071z"/>
    <path d="M457.5,75.782c-15.856,0-35.614-6.842-56.533-14.085c-26.492-9.174-56.521-19.571-87.663-19.571
      c-36.035,0-58.019,15.791-70.115,29.038c-4.524,4.956-8.03,9.922-10.688,14.327c-2.658-4.405-6.164-9.371-10.688-14.327
      c-12.097-13.247-34.08-29.038-70.115-29.038c-31.143,0-61.171,10.397-87.663,19.571C43.114,68.94,23.356,75.782,7.5,75.782
      c-4.143,0-7.5,3.357-7.5,7.5v302.092c0,4.143,3.357,7.5,7.5,7.5c18.38,0,39.297-7.243,61.441-14.911
      c25.375-8.786,54.136-18.745,82.755-18.745c24.54,0,44.403,8.126,59.038,24.152c2.792,3.058,7.537,3.273,10.596,0.48
      s3.273-7.537,0.48-10.596c-12.097-13.246-34.08-29.037-70.114-29.037c-31.143,0-61.171,10.397-87.663,19.571
      C46.298,369.931,29.396,375.782,15,377.422V90.41c16.491-1.571,34.755-7.896,53.941-14.539
      c25.375-8.786,54.136-18.745,82.755-18.745c57.881,0,73.025,45.962,73.634,47.894c0.968,3.148,3.876,5.298,7.17,5.298
      s6.202-2.149,7.17-5.298c0.146-0.479,15.383-47.894,73.634-47.894c28.619,0,57.38,9.959,82.755,18.745
      c19.187,6.644,37.45,12.968,53.941,14.539v287.012c-14.396-1.64-31.298-7.491-49.033-13.633
      c-26.492-9.174-56.521-19.571-87.663-19.571c-36.036,0-58.02,15.791-70.115,29.038c-2.793,3.06-2.578,7.803,0.48,10.596
      c3.06,2.793,7.804,2.578,10.596-0.48c14.635-16.027,34.498-24.153,59.039-24.153c28.619,0,57.38,9.959,82.755,18.745
      c22.145,7.668,43.062,14.911,61.441,14.911c4.143,0,7.5-3.357,7.5-7.5V83.282C465,79.14,461.643,75.782,457.5,75.782z"/>
    <path d="M457.5,407.874c-15.856,0-35.614-6.842-56.533-14.085c-26.492-9.174-56.521-19.571-87.663-19.571
      c-33.843,0-55.291,13.928-67.796,26.596l-26.017-0.001c-12.505-12.668-33.954-26.595-67.795-26.595
      c-31.143,0-61.171,10.397-87.663,19.571c-20.919,7.243-40.677,14.085-56.533,14.085c-4.143,0-7.5,3.357-7.5,7.5s3.357,7.5,7.5,7.5
      c18.38,0,39.297-7.243,61.441-14.911c25.375-8.786,54.136-18.745,82.755-18.745c24.54,0,44.403,8.126,59.038,24.152
      c1.421,1.556,3.431,2.442,5.538,2.442l32.454,0.001c2.107,0,4.117-0.887,5.538-2.442c14.635-16.027,34.498-24.153,59.039-24.153
      c28.619,0,57.38,9.959,82.755,18.745c22.145,7.668,43.062,14.911,61.441,14.911c4.143,0,7.5-3.357,7.5-7.5
      S461.643,407.874,457.5,407.874z"/>
  </symbol>
  <!-- Chevron icon -->
  <symbol id="chevron" viewBox="0 0 284.9 284.9">
	  <path d="M2.8,89.6l133.1,133c1.9,1.9,4.1,2.9,6.6,2.9s4.7-1,6.6-2.9l133-133c1.9-1.9,2.9-4.1,2.9-6.6c0-2.5-1-4.7-2.9-6.6
		l-14.3-14.3c-1.9-1.9-4.1-2.9-6.6-2.9s-4.7,1-6.6,2.9L142.5,174.4L30.3,62.2c-1.9-1.9-4.1-2.8-6.6-2.8c-2.5,0-4.7,1-6.6,2.8
		L2.8,76.5C0.9,78.4,0,80.6,0,83.1C0,85.6,0.9,87.7,2.8,89.6z"/>
  </symbol>
  <!-- Owl icon -->
  <symbol id="owl" viewBox="0 0 48 48">
    <path d="M38.7,24.4c-0.8,0.5-1.5,1.2-2.2,1.8c-2.2,2.4-3.6,5.5-3.6,9c0,3.4,1.3,6.6,3.6,8.9c0.7,0.7,1.4,1.3,2.2,1.9 c0.2,0.2,0.6,0,0.6-0.3v-21C39.2,24.4,38.9,24.2,38.7,24.4z"/>
    <path d="M39.2,14.1C39.2,6.3,32.9,0,25.2,0h-4.1C13.3,0,7,6.3,7,14.1v9.7C7,37.1,17.9,48,31.2,48h4.9c0.2,0,0.3-0.2,0.1-0.4 c-0.9-0.7-1.7-1.5-2.4-2.4c-2.3-2.8-3.6-6.3-3.6-10.1c0-5.1,2.4-9.7,6.3-12.6c0.7-0.5,1.4-1,2.2-1.4c0.4-0.2,0.6-0.5,0.6-0.9 L39.2,14.1L39.2,14.1z M31,21.6c-0.1,0-0.2,0-0.2,0.1h-3.9c-1,0-2.1,0.4-2.8,1.2l-0.6,0.6c-0.2,0.2-0.5,0.2-0.7,0l-0.6-0.6 c-0.7-0.7-1.7-1.2-2.8-1.2h-3.5c0,0-0.1,0-0.1,0c-3.3-0.2-5.8-3-5.7-6.3c0.2-3,2.6-5.4,5.6-5.6c3.2-0.2,6,2.1,6.4,5.3 c0.1,0.6,0.5,1,1.1,1s1-0.4,1.1-1c0.4-3.2,3.2-5.5,6.4-5.3c2.9,0.2,5.3,2.6,5.6,5.5C36.4,18.4,34.1,21.2,31,21.6z"/>
    <circle cx="16.2" cy="15.7" r="2.5"/>
    <circle cx="30" cy="15.7" r="2.5"/>
  </symbol>
  <!-- Sprout icon -->
  <symbol id="sprout" viewBox="0 0 48 48">
    <path d="M47.7,0.3C47.7,0.3,47.7,0.3,47.7,0.3C47.4,0,47.1,0,46.8,0c-4.8,1.1-16.2,4.1-19,7.8c-2.6,3.4-2.4,8.3,0.6,11.5
      c-2.4,4.2-4.1,8.9-4.9,13.7c-0.9-2.4-2.1-4.7-3.6-6.9c2.9-3.4,2.8-8.7-0.5-12C16.3,10.9,2.8,7.6,1.2,7.2C0.6,7-0.2,7.6,0,8.4 c0.3,1.2,2.4,9.7,4.8,14.9c0.7,1.4,1.4,2.6,2,3.3c3.3,3.3,8.2,3.3,11.6,0.8c1.8,2.8,3.2,5.9,4.2,9.1c-6.1,0.7-11.5,4.4-14.2,10 c-0.2,0.3-0.1,0.7,0.1,1C8.6,47.8,8.9,48,9.3,48h30.4c0.3,0,0.7-0.2,0.9-0.5c0.2-0.3,0.2-0.7,0.1-1c-2.9-6.1-8.9-9.9-15.6-10.1 c0.5-5.6,2.2-11,4.9-15.9c3,2,6.9,1.9,9.8-0.1c0.5-0.3,0.9-0.7,1.3-1.1c3.2-3.2,6.5-16.7,6.9-18.2c0-0.1,0-0.2,0-0.3 C48,0.7,47.9,0.5,47.7,0.3z M16.5,24.4C16.5,24.4,16.5,24.4,16.5,24.4l-0.9-0.9h-2.7c-0.3,0-0.5-0.2-0.5-0.5c0-0.3,0.2-0.5,0.5-0.5	h1.7l-0.8-0.8c0,0,0,0,0,0l-0.9-0.9h-2.7c-0.3,0-0.5-0.2-0.5-0.5c0-0.3,0.2-0.5,0.5-0.5h1.7L11.2,19c0,0,0,0,0,0l-0.9-0.9H7.5 c-0.3,0-0.5-0.2-0.5-0.5c0-0.3,0.2-0.5,0.5-0.5h1.7l-1.7-1.7c-0.2-0.2-0.2-0.5,0-0.7c0.2-0.2,0.5-0.2,0.7,0l2.6,2.6l0,0l0.2,0.2	v-1.7c0-0.3,0.2-0.5,0.5-0.5c0.3,0,0.5,0.2,0.5,0.5v2.7l1.7,1.7v-1.7c0-0.3,0.2-0.5,0.5-0.5c0.3,0,0.5,0.2,0.5,0.5v2.7l1.7,1.7	v-1.7c0-0.3,0.2-0.5,0.5-0.5c0.3,0,0.5,0.2,0.5,0.5v2.7l1,1c-0.3,0.3-0.4,0.4-0.7,0.7L16.5,24.4z M40.4,11h-2.7l-0.9,0.9 c0,0,0,0,0,0l-0.8,0.8h1.7c0.3,0,0.5,0.2,0.5,0.5s-0.2,0.5-0.5,0.5h-2.7l-1.7,1.7h1.7c0.3,0,0.5,0.2,0.5,0.5s-0.2,0.5-0.5,0.5h-2.7 c-0.1,0.1-2.2,2.2-2.1,2.1C30,18,29.9,18,29.6,17.6l1-1v-2.7c0-0.3,0.2-0.5,0.5-0.5c0.3,0,0.5,0.2,0.5,0.5v1.7l0.2-0.2c0,0,0,0,0,0 l1.5-1.5v-2.7c0-0.3,0.2-0.5,0.5-0.5c0.3,0,0.5,0.2,0.5,0.5V13l0.2-0.2c0,0,0,0,0,0l1.5-1.5V8.6c0-0.3,0.2-0.5,0.5-0.5	c0.3,0,0.5,0.2,0.5,0.5v1.7l0.2-0.2c0,0,0,0,0,0l2.6-2.6c0.2-0.2,0.5-0.2,0.7,0s0.2,0.5,0,0.7L38.7,10h1.7c0.3,0,0.5,0.2,0.5,0.5	C40.9,10.7,40.7,11,40.4,11z"/>
  </symbol>
  <!-- Rocket two icon -->
  <symbol id="rocket-two" viewBox="0 0 48 48">
    <path d="M16.2,31.8h1.9v6.1H23v-7.8H25v7.8h4.8v-6.1h1.9v6.1h2.9V12.3c0-1.2-0.4-2.4-1.2-3.5L24,0l-9.5,8.8c-0.8,1-1.2,2.2-1.2,3.5 v25.6h2.9L16.2,31.8z M24,12.7c3.7,0,6.8,2.7,6.8,6.1s-3,6.1-6.8,6.1s-6.8-2.7-6.8-6.1C17.2,15.4,20.3,12.7,24,12.7z"/>
    <ellipse cx="24" cy="18.8" rx="4.8" ry="4.4"/>
    <path d="M21.1,44.3c0,0.7,0.3,1.4,0.9,1.8L24,48l2.1-1.8c0.5-0.5,0.8-1.2,0.9-1.8v-4.7h-5.8V44.3z"/>
    <path d="M36.6,26.5v11.4h7.1L36.6,26.5z"/>
    <path d="M15.3,41.7c0,0.7,0.3,1.4,0.9,1.8l1.1,1l1.1-1c0.5-0.5,0.8-1.2,0.9-1.8v-2h-3.9V41.7z"/>
    <path d="M31.9,43.5c0.5-0.5,0.8-1.2,0.9-1.8v-2h-3.9v2c0,0.7,0.3,1.4,0.9,1.8l1.1,1L31.9,43.5z"/>
    <path d="M11.4,37.9V26.5L4.3,37.9H11.4z"/>
  </symbol>
  <!-- Glasses icon -->
  <symbol id="glasses" viewBox="0 0 61.625 61.625">
    <path d="M1,29.957h1.787c-0.009,0.201-0.03,0.398-0.03,0.602c0,6.979,5.679,12.66,12.66,12.66s12.66-5.681,12.66-12.66
		c0-0.203-0.021-0.4-0.03-0.602h5.785c-0.031,0.367-0.056,0.736-0.056,1.111c0,6.98,5.679,12.66,12.659,12.66
		c6.981,0,12.66-5.68,12.66-12.66c0-0.375-0.023-0.744-0.056-1.111h1.585c0.553,0,1-0.447,1-1c0-0.553-0.447-1-1-1h-1.932
		c-1.393-5.479-6.352-9.549-12.258-9.549c-5.904,0-10.865,4.07-12.256,9.549h-6.374c-1.203-5.736-6.299-10.059-12.389-10.059
		c-6.09,0-11.186,4.322-12.389,10.059H1c-0.552,0-1,0.447-1,1S0.448,29.957,1,29.957z M46.436,20.409
		c5.879,0,10.66,4.781,10.66,10.66c0,5.878-4.781,10.66-10.66,10.66c-5.877,0-10.659-4.782-10.659-10.66
		C35.776,25.189,40.559,20.409,46.436,20.409z M15.417,19.898c5.878,0,10.66,4.781,10.66,10.66c0,5.877-4.782,10.66-10.66,10.66
		s-10.66-4.783-10.66-10.66C4.757,24.68,9.539,19.898,15.417,19.898z"/>
  </symbol>
  <!-- Warning icon -->
  <symbol id="warning" viewBox="0 0 512.001 512.001">
    <path d="M503.839,395.379l-195.7-338.962C297.257,37.569,277.766,26.315,256,26.315c-21.765,0-41.257,11.254-52.139,30.102
    L8.162,395.378c-10.883,18.85-10.883,41.356,0,60.205c10.883,18.849,30.373,30.102,52.139,30.102h391.398
    c21.765,0,41.256-11.254,52.14-30.101C514.722,436.734,514.722,414.228,503.839,395.379z M477.861,440.586
    c-5.461,9.458-15.241,15.104-26.162,15.104H60.301c-10.922,0-20.702-5.646-26.162-15.104c-5.46-9.458-5.46-20.75,0-30.208
    L229.84,71.416c5.46-9.458,15.24-15.104,26.161-15.104c10.92,0,20.701,5.646,26.161,15.104l195.7,338.962
    C483.321,419.836,483.321,431.128,477.861,440.586z"/>
    <rect x="241.001" y="176.01" width="29.996" height="149.982"/>
    <path d="M256,355.99c-11.027,0-19.998,8.971-19.998,19.998s8.971,19.998,19.998,19.998c11.026,0,19.998-8.971,19.998-19.998
    S267.027,355.99,256,355.99z"/>
  </symbol>
  <!-- Image icon -->
  <symbol id="image" viewBox="0 0 512 512">
    <path d="M464,0H48C21.49,0,0,21.49,0,48v416c0,26.51,21.49,48,48,48h416c26.51,0,48-21.49,48-48V48C512,21.49,490.51,0,464,0z
        M480,464c0,8.837-7.163,16-16,16H48c-8.837,0-16-7.163-16-16V48c0-8.837,7.163-16,16-16h416c8.837,0,16,7.163,16,16V464z"/>
    <path d="M347.36,276.64c-6.241-6.204-16.319-6.204-22.56,0l-36.8,36.8l-68.64-68.64c-6.241-6.204-16.319-6.204-22.56,0l-112,112
      c-6.186,6.31-6.087,16.44,0.223,22.626c2.935,2.878,6.866,4.516,10.977,4.574h320c8.836,0.051,16.041-7.07,16.093-15.907
      c0.025-4.299-1.681-8.426-4.733-11.453L347.36,276.64z"/>
    <circle cx="304" cy="176" r="48"/>
  </symbol>
  <!-- Download database -->
  <symbol id="downloaddb" viewBox="0 0 612 612">
    <path d="M403.939,295.749l-78.814,78.833V172.125c0-10.557-8.568-19.125-19.125-19.125c-10.557,0-19.125,8.568-19.125,19.125
      v202.457l-78.814-78.814c-7.478-7.478-19.584-7.478-27.043,0c-7.478,7.478-7.478,19.584,0,27.042l108.19,108.19
      c4.59,4.59,10.863,6.005,16.812,4.953c5.929,1.052,12.221-0.382,16.811-4.953l108.19-108.19c7.478-7.478,7.478-19.583,0-27.042
      C423.523,288.29,411.417,288.29,403.939,295.749z M306,0C137.012,0,0,136.992,0,306s137.012,306,306,306s306-137.012,306-306
      S475.008,0,306,0z M306,573.75C158.125,573.75,38.25,453.875,38.25,306C38.25,158.125,158.125,38.25,306,38.25
      c147.875,0,267.75,119.875,267.75,267.75C573.75,453.875,453.875,573.75,306,573.75z"/>
  </symbol>
  <!-- External link -->
  <symbol id="external" viewBox="0 0 51.561 51.561">
		<path d="M31.3,0c-0.643,0-1.168,0.523-1.168,1.168s0.525,1.168,1.168,1.168h16.271L20.195,29.711
			c-0.455,0.456-0.455,1.197,0,1.651c0.229,0.23,0.528,0.342,0.827,0.342s0.598-0.116,0.827-0.342L49.225,3.987v16.269
			c0,0.646,0.522,1.168,1.168,1.168c0.644,0,1.168-0.522,1.168-1.168V0H31.3z"/>
		<polygon points="40.361,49.223 2.335,49.225 2.335,11.2 31.004,11.2 31.004,8.864 0,8.864 0,51.561 42.697,51.559 42.697,20.555 
			40.361,20.555 		"/>
  </symbol>
  <!-- Globe -->
  <symbol id="globe" viewBox="0 0 20 20">
    <path d="M10,19c-5,0-9-4-9-9s4-9,9-9s9,4,9,9S15,19,10,19z M10,2.6c-4.1,0-7.4,3.3-7.4,7.4c0,4.1,3.3,7.4,7.4,7.4 c4.1,0,7.4-3.3,7.4-7.4C17.4,5.9,14.1,2.6,10,2.6z" />
    <path d="M18.2,10.8H1.8C1.3,10.8,1,10.5,1,10s0.4-0.8,0.8-0.8h16.4c0.5,0,0.8,0.4,0.8,0.8S18.7,10.8,18.2,10.8z" />
    <path d="M10,18.8c-2.4,0-4.2-3.8-4.2-8.8c0-5,1.8-8.8,4.2-8.8S14.2,5,14.2,10C14.2,15,12.4,18.8,10,18.8z M10,2.8 c-1.1,0-2.6,2.8-2.6,7.2c0,4.4,1.5,7.2,2.6,7.2s2.6-2.8,2.6-7.2C12.6,5.6,11.1,2.8,10,2.8z" />
  </symbol>
</svg>